<svg width="15" height="13" viewBox="0 0 15 13" fill="none" xmlns="http://www.w3.org/2000/svg">
<g clip-path="url(#clip0_2_6936)">
<path d="M13.4593 2.97033C12.9956 3.14769 12.504 3.26417 12.0005 3.31592C12.5312 3.04146 12.9283 2.60952 13.118 2.10059C12.62 2.35689 12.074 2.53651 11.505 2.63367C11.1227 2.27999 10.6161 2.04542 10.0638 1.96644C9.51152 1.88746 8.94454 1.96849 8.45099 2.19694C7.95745 2.42538 7.56501 2.78844 7.33467 3.22967C7.10434 3.67091 7.04902 4.16559 7.17731 4.63681C6.16743 4.59304 5.17948 4.36608 4.2776 3.97067C3.37572 3.57527 2.58008 3.02025 1.94233 2.34166C1.71659 2.67698 1.59796 3.05816 1.5986 3.44617C1.5986 4.20772 2.04679 4.88051 2.72819 5.27441C2.32494 5.26344 1.93057 5.16926 1.57795 4.99973V5.02704C1.57807 5.53424 1.78101 6.02578 2.15237 6.41835C2.52372 6.81091 3.04064 7.08033 3.61546 7.18092C3.24113 7.26865 2.84862 7.28158 2.46765 7.21873C2.62972 7.6553 2.94561 8.03711 3.37108 8.3107C3.79655 8.58428 4.3103 8.73595 4.8404 8.74446C4.31355 9.1023 3.71031 9.36682 3.06517 9.52291C2.42003 9.67899 1.74564 9.72358 1.08057 9.65412C2.24155 10.2998 3.59305 10.6426 4.9734 10.6415C9.6454 10.6415 12.2003 7.29436 12.2003 4.39154C12.2003 4.297 12.1973 4.20142 12.1924 4.10793C12.6897 3.79709 13.1189 3.41204 13.4599 2.97086L13.4593 2.97033Z" fill="#2B2B2B"/>
</g>
<defs>
<clipPath id="clip0_2_6936">
<rect width="14.5753" height="12.605" fill="white"/>
</clipPath>
</defs>
</svg>
