<svg width="15" height="13" viewBox="0 0 15 13" fill="none" xmlns="http://www.w3.org/2000/svg">
<g clip-path="url(#clip0_2_6916)">
<path d="M13.0834 3.41255C13.361 4.34847 13.361 6.30224 13.361 6.30224C13.361 6.30224 13.361 8.25601 13.0834 9.19193C12.9292 9.70926 12.4779 10.1163 11.9065 10.2539C10.8686 10.5039 7.2879 10.5039 7.2879 10.5039C7.2879 10.5039 3.70905 10.5039 2.66934 10.2539C2.09544 10.1142 1.64482 9.70769 1.49238 9.19193C1.21484 8.25601 1.21484 6.30224 1.21484 6.30224C1.21484 6.30224 1.21484 4.34847 1.49238 3.41255C1.64664 2.89522 2.09787 2.48819 2.66934 2.35058C3.70905 2.10059 7.2879 2.10059 7.2879 2.10059C7.2879 2.10059 10.8686 2.10059 11.9065 2.35058C12.4804 2.49029 12.931 2.8968 13.0834 3.41255ZM6.07329 8.14047L9.71713 6.30224L6.07329 4.46402V8.14047Z" fill="#2B2B2B"/>
</g>
<defs>
<clipPath id="clip0_2_6916">
<rect width="14.5753" height="12.605" fill="white"/>
</clipPath>
</defs>
</svg>
