<svg width="15" height="13" viewBox="0 0 15 13" fill="none" xmlns="http://www.w3.org/2000/svg">
<g clip-path="url(#clip0_2_6926)">
<path d="M4.21487 2.62613C4.21471 2.90472 4.08659 3.17184 3.85869 3.36874C3.63079 3.56563 3.32178 3.67616 2.99965 3.67602C2.67751 3.67588 2.36864 3.56508 2.14097 3.36799C1.9133 3.1709 1.78548 2.90367 1.78564 2.62508C1.78581 2.3465 1.91393 2.07938 2.14183 1.88248C2.36972 1.68559 2.67873 1.57506 3.00086 1.5752C3.323 1.57533 3.63188 1.68614 3.85955 1.88323C4.08722 2.08032 4.21503 2.34755 4.21487 2.62613ZM4.25131 4.45386H1.82208V11.0294H4.25131V4.45386ZM8.08948 4.45386H5.6724V11.0294H8.06519V7.57884C8.06519 5.65658 10.962 5.47801 10.962 7.57884V11.0294H13.3609V6.86456C13.3609 3.62403 9.07332 3.74483 8.06519 5.3362L8.08948 4.45386Z" fill="#2B2B2B"/>
</g>
<defs>
<clipPath id="clip0_2_6926">
<rect width="14.5753" height="12.605" fill="white"/>
</clipPath>
</defs>
</svg>
