<svg width="15" height="13" viewBox="0 0 15 13" fill="none" xmlns="http://www.w3.org/2000/svg">
<g clip-path="url(#clip0_2_6906)">
<path d="M12.1397 6.07758C12.0899 5.25085 11.7574 4.45553 11.1844 3.7924C11.0098 3.95502 10.8231 4.10765 10.6257 4.24933C10.0189 4.68517 9.34089 5.04092 8.61365 5.305C8.71507 5.48882 8.80799 5.66686 8.88998 5.83493V5.83651C8.91311 5.88347 8.93538 5.93074 8.95678 5.97831C9.87624 5.88903 10.8455 5.92159 11.785 6.03136C11.9101 6.04606 12.0279 6.06182 12.1397 6.07758ZM6.4401 2.16478C7.03195 2.88598 7.57772 3.63465 8.07497 4.40742C8.81771 4.15427 9.43169 3.83494 9.92604 3.47938C10.0976 3.35707 10.2592 3.22457 10.4095 3.08284C9.53553 2.4472 8.42982 2.09931 7.2879 2.10071C7.0037 2.10054 6.72003 2.1218 6.4401 2.16426V2.16478ZM2.5831 5.25037C2.99682 5.24135 3.41004 5.2198 3.82201 5.18577C4.81777 5.10875 5.80503 4.9644 6.77473 4.75405C6.26794 3.99261 5.72078 3.25181 5.135 2.534C4.50931 2.80207 3.95759 3.18337 3.51729 3.65206C3.07698 4.12074 2.75838 4.66584 2.5831 5.25037ZM3.51228 8.94678C3.74792 8.64899 4.05764 8.31391 4.46879 7.94941C5.35181 7.16686 6.39395 6.55762 7.60006 6.22148L7.63771 6.21203C7.53751 6.02085 7.44337 5.85016 7.34863 5.68945C6.23362 5.97043 5.05909 6.14585 3.88881 6.23671C3.31794 6.28136 2.80599 6.30079 2.42946 6.30394C2.42838 7.26643 2.81102 8.19982 3.51289 8.94678H3.51228ZM9.11286 10.1968C8.87866 9.17538 8.54715 8.17249 8.12173 7.19837C6.90591 7.58019 5.93725 8.13849 5.18845 8.80445C4.88625 9.06831 4.61807 9.35975 4.38862 9.67367C5.22598 10.214 6.24314 10.5053 7.2879 10.504C7.91337 10.5048 8.5331 10.4008 9.11286 10.1978V10.1968ZM10.2503 9.63218C11.1985 9.0018 11.8444 8.09107 12.0644 7.07442C11.8579 7.02978 11.5961 6.98513 11.3083 6.95047C10.6683 6.87077 10.0188 6.86494 9.37703 6.93314C9.73842 7.81487 10.0302 8.7168 10.2503 9.6327V9.63218ZM7.2879 11.5544C3.93375 11.5544 1.21484 9.20308 1.21484 6.30236C1.21484 3.40165 3.93375 1.05029 7.2879 1.05029C10.6421 1.05029 13.361 3.40165 13.361 6.30236C13.361 9.20308 10.6421 11.5544 7.2879 11.5544Z" fill="#2B2B2B"/>
</g>
<defs>
<clipPath id="clip0_2_6906">
<rect width="14.5753" height="12.605" fill="white"/>
</clipPath>
</defs>
</svg>
